<svg width="451" height="276" viewBox="0 0 451 276" fill="none" xmlns="http://www.w3.org/2000/svg">
<g opacity="0.5" filter="url(#filter0_f_72_405)">
<path d="M185.182 214.003C174.828 207.791 164.063 204.425 154.38 196.86C148.424 194.875 152.515 193.864 155.617 191.452C160.078 187.983 163.521 183.951 167.627 180.359C170.782 177.598 175.56 176.05 179.132 173.758C184.827 170.105 188.079 169.633 195.083 169.633C218.096 169.633 240.908 169.32 263.289 163.674C276.673 160.298 289.409 156.798 303.351 156.478C322.139 156.046 338.788 159.06 356.889 163.857C366.319 166.357 374.814 168.808 384.575 168.808C391.203 168.808 397.868 168.56 404.468 169.22C422.152 170.989 439.946 170.036 456.723 177.059C462.951 179.666 469.909 181.072 475.745 184.53C482.264 188.393 481.933 193.703 481.933 200.573C481.933 206.893 483.02 209.785 475.699 210.061C468.971 210.315 462.108 218.417 458.464 223.171C452.123 231.445 448.167 238.887 437.196 240.406C427.386 241.764 417.334 239.695 407.493 241.414C400.351 242.662 393.839 245.151 386.5 245.448C379.249 245.741 372.133 245.038 364.911 244.76C356.51 244.437 348.361 242.594 340.021 242.285C320.75 241.571 301.416 241.3 282.312 238.526C272.753 237.139 263.767 233.217 254.213 232.155C247.01 231.355 239.816 231.513 232.578 231.513C227.222 231.513 223.058 231.821 217.91 233.163C214.665 234.01 210.206 236.832 207.001 234.814C200.632 230.804 195.149 224.992 190.5 219.137C188.891 217.112 187.419 215.345 185.182 214.003Z" fill="#CDA411"/>
</g>
<g opacity="0.5" filter="url(#filter1_f_72_405)">
<path d="M28.2276 223.055C27.3343 221.734 26.468 220.122 25.3825 218.983C24.1014 217.64 24.9896 217.365 25.9221 216.432C26.345 216.01 27.6475 215.341 28.2276 215.01C30.5353 213.691 33.5881 214.127 36.3217 214.127C40.9808 214.127 47.0665 214.64 50.7437 211.257C56.7801 205.704 64.7415 204.784 72.6221 204.39C76.8242 204.179 80.9882 202.945 85.2046 202.673C89.5282 202.394 93.9449 202.648 98.2776 202.648C102.191 202.648 106.102 202.725 109.977 203.359C114.862 204.159 119.345 206.417 124.277 206.965C130.038 207.605 135.915 207.133 141.715 207.725C146.624 208.226 151.584 208.313 156.506 208.731C161.951 209.193 166.362 210.186 171.467 212.214C175.78 213.927 180.204 215.501 184.369 217.561C186.09 218.412 190.119 219.272 190.633 221.329C190.876 222.3 193.829 225.314 193.276 226.337C192.229 228.274 194.698 229.24 193.276 230.928C191.691 232.81 188.902 235.441 187.155 237.188C184.058 240.285 174.161 242.672 170.41 244.945C176.111 241.219 167.88 246.385 165.455 248.455C163.794 249.873 152.471 249.873 150.431 250.771C147.213 252.187 141.258 249.781 138.021 249.299C125.871 247.492 118.708 247.671 106.617 245.473C95.2506 243.406 84.8355 237.779 73.0636 238.433C69.7114 238.62 66.1075 240.926 62.8112 239.733C59.149 238.409 54.7044 237.084 50.8173 237.084C44.7702 237.084 40.4167 236.683 36.8613 231.443C35.5029 229.441 34.1273 227.909 32.1765 226.464C30.8286 225.466 29.1885 224.475 28.2276 223.055Z" fill="#CDA411"/>
</g>
<path d="M347.465 134.183C347.523 130.803 347.73 128.525 347.44 124.223C347.237 121.228 347.023 121.154 346.745 120.565C346.268 119.559 345.627 118.906 344.766 118.236C344.324 117.892 342.253 116.674 341.714 116.405L341.657 116.376C339.425 115.26 338.766 114.931 336.303 114.285C332.327 113.242 328.015 113.7 323.976 114.084C319.134 114.543 314.272 114.409 309.425 114.804C304.258 115.225 299.086 115.613 293.922 116.075C284.141 116.949 274.272 117.349 264.46 117.705C246.705 118.351 229.505 123.75 212.04 126.463C207.593 127.154 202.488 127.223 198.019 126.665C194.314 126.201 190.437 125.691 187.047 123.996C184.884 122.914 182.674 121.63 180.672 120.279C178.396 118.742 175.917 117.507 173.619 115.99C172.311 115.126 170.931 114.415 169.606 113.597C168.643 113.002 167.562 112.587 166.524 112.135C165.829 111.833 164.968 111.224 164.194 111.224C162.623 111.224 161.086 111.608 159.566 111.976C158.767 112.17 157.337 112.341 157.078 113.321C156.813 114.323 157 115.858 157.131 116.826C157.291 118.011 157.226 119.222 157.226 120.416C157.226 122.097 157.472 124.01 157.184 125.669C156.59 129.083 156.486 132.573 155.934 136.005C155.284 140.05 153.985 144.284 153.985 148.385C153.985 149.904 153.355 151.732 153.355 153.257C153.355 155.404 152.99 157.429 152.99 158.73C152.99 162.388 151.906 167.353 152.27 170.992C152.667 174.965 152.27 175.561 152.27 179.551C152.27 182.013 151.889 184.435 151.889 186.911C151.889 189.332 152 192.195 153.022 194.409C154.383 197.359 157.779 199.787 160.361 201.568C162.158 202.807 163.952 203.87 165.952 204.776C167.911 205.664 169.543 207.264 171.258 208.536C175.251 211.498 179.842 212.579 184.411 214.276C185.67 214.743 186.774 215.562 188.032 216.065C189.407 216.615 190.824 217.046 192.215 217.548C194.484 218.367 196.754 218.734 199.162 218.734C201.94 218.734 204.802 218.661 207.571 218.448C209.847 218.273 212.132 218.325 214.412 218.162C215.978 218.05 217.566 217.8 219.135 217.781C222.345 217.742 225.496 217.209 228.719 217.209C233.695 217.209 238.689 216.991 243.662 216.838C247.362 216.725 250.963 216.256 254.675 216.256C259.495 216.256 264.409 216.542 269.215 216.161C276.978 215.545 284.766 215.597 292.524 214.964C296.727 214.621 301.026 214.914 305.242 214.742C309.91 214.551 314.725 214.547 319.38 214.879C321.861 215.056 324.392 214.922 326.878 214.922C328.698 214.922 330.382 214.888 332.152 214.445C334.683 213.812 337.719 213.242 339.718 211.668C341.734 210.08 343.273 207.405 344.182 204.861C344.66 203.523 344.872 201.94 344.976 200.53C345.059 199.416 345.237 198.316 345.368 197.205C345.481 196.246 345.593 195.355 345.843 193.863C346.155 192.006 346.227 191.014 346.469 189.379C346.758 187.427 346.958 185.336 347.094 183.363C347.272 180.78 347.492 178.981 347.797 176.484L347.846 176.081C348.144 173.634 348.46 170.961 348.42 168.07C348.38 165.113 348.178 163.176 348.178 160.721C348.023 157.587 348.023 155.304 348.023 152.444V147.236C348.023 145.934 347.958 144.419 347.846 143.153C347.579 140.148 347.413 137.204 347.465 134.183Z" fill="#F95F4A"/>
<path d="M128.545 184.101C128.576 182.255 128.69 181.012 128.531 178.664C128.42 177.029 128.304 176.988 128.152 176.667C127.892 176.118 127.541 175.761 127.071 175.395C126.83 175.208 125.699 174.543 125.405 174.396L125.374 174.38C124.156 173.771 123.796 173.591 122.452 173.239C120.281 172.669 117.928 172.919 115.723 173.129C113.08 173.38 110.425 173.306 107.78 173.522C104.959 173.752 102.136 173.964 99.3165 174.216C93.9775 174.693 88.5898 174.911 83.234 175.106C73.5418 175.458 64.1528 178.406 54.6186 179.887C52.1913 180.264 49.4045 180.301 46.9648 179.997C44.9424 179.744 42.8262 179.465 40.9758 178.54C39.7946 177.949 38.5882 177.248 37.4957 176.511C36.2531 175.672 34.8999 174.998 33.6456 174.169C32.9316 173.698 32.178 173.31 31.4546 172.863C30.929 172.538 30.3391 172.312 29.7724 172.065C29.3932 171.9 28.9227 171.568 28.5006 171.568C27.6428 171.568 26.8036 171.777 25.9743 171.978C25.5377 172.084 24.7575 172.177 24.6158 172.713C24.4711 173.259 24.5733 174.098 24.6447 174.626C24.7321 175.273 24.6968 175.934 24.6968 176.586C24.6968 177.503 24.8311 178.548 24.6736 179.453C24.3496 181.316 24.2926 183.222 23.9915 185.095C23.6366 187.304 22.9278 189.614 22.9278 191.853C22.9278 192.683 22.5836 193.681 22.5836 194.513C22.5836 195.685 22.3844 196.79 22.3844 197.5C22.3844 199.497 21.7927 202.208 21.9913 204.194C22.2082 206.363 21.9913 206.688 21.9913 208.866C21.9913 210.21 21.7832 211.532 21.7832 212.884C21.7832 214.206 21.8441 215.769 22.4018 216.977C23.145 218.587 24.9984 219.913 26.4079 220.885C27.3888 221.561 28.3682 222.142 29.4602 222.636C30.5298 223.121 31.4206 223.994 32.3564 224.689C34.5362 226.306 37.0424 226.896 39.5363 227.822C40.2239 228.077 40.8263 228.524 41.5134 228.799C42.2635 229.099 43.0375 229.334 43.7968 229.608C45.0351 230.055 46.2743 230.256 47.5891 230.256C49.1054 230.256 50.6677 230.216 52.1791 230.099C53.4217 230.004 54.669 230.032 55.9136 229.943C56.7686 229.882 57.6354 229.746 58.4918 229.735C60.2442 229.714 61.964 229.423 63.7235 229.423C66.4398 229.423 69.1661 229.304 71.8804 229.221C73.9002 229.159 75.8663 228.903 77.8925 228.903C80.5235 228.903 83.2058 229.059 85.8297 228.851C90.0671 228.515 94.3186 228.543 98.5534 228.198C100.848 228.01 103.195 228.17 105.496 228.076C108.044 227.972 110.673 227.97 113.214 228.151C114.568 228.248 115.95 228.174 117.307 228.174C118.3 228.174 119.219 228.156 120.185 227.914C121.567 227.569 123.225 227.258 124.316 226.398C125.416 225.531 126.257 224.071 126.753 222.683C127.013 221.952 127.129 221.088 127.186 220.318C127.231 219.71 127.329 219.11 127.4 218.503C127.462 217.98 127.523 217.493 127.66 216.679C127.83 215.665 127.869 215.124 128.001 214.231C128.159 213.166 128.268 212.024 128.342 210.947C128.44 209.537 128.559 208.555 128.726 207.192L128.753 206.972C128.916 205.636 129.088 204.177 129.066 202.599C129.044 200.985 128.934 199.928 128.934 198.587C128.849 196.876 128.849 195.63 128.849 194.069V191.226C128.849 190.515 128.814 189.688 128.753 188.997C128.607 187.357 128.516 185.75 128.545 184.101Z" fill="#F95F4A"/>
<path d="M149.237 109.456C148.973 105.886 147.801 103.916 150.659 101.73C152.108 100.622 152.165 100.706 154.424 100.013C155.511 99.8156 157.676 99.411 159.092 99.14C163.158 98.3613 163.372 98.682 166.725 97.7625C171.465 96.463 176.267 95.0081 181.056 93.8907C187.289 92.4363 193.406 90.4066 199.753 89.5251C203.601 88.9906 207.417 88.4053 211.225 87.5892C215.094 86.7602 219.251 85.8171 223.205 85.6143C229.92 85.2699 236.302 83.0996 242.997 82.6533C245.639 82.2887 247.446 82.1011 249.896 81.6269C251 81.4132 253.199 81.1217 254.287 80.9239C256.521 80.5177 258.449 80.4125 261.044 80.629C264.579 80.9239 268.373 81.9475 271.681 83.0287C275.95 84.4246 280.055 86.331 284.297 87.8361C290.162 89.9174 296.143 91.4343 302.11 93.1891C305.679 94.239 309.124 95.6865 312.751 96.5932C316.132 97.4385 319.507 98.339 322.872 99.2567C326.031 100.118 328.205 100.66 331.62 101.687C334.637 102.595 337.102 103.609 340.202 104.323C344.654 105.348 346.183 105.333 348.611 107.221C350.457 108.657 350.802 111.454 350.949 113.614C351.123 116.16 351.01 116.847 351.589 121.23C351.88 123.429 352.261 125.954 351.589 127.162C351.126 127.996 351.056 128.062 350.183 128.633C349.077 129.356 347.372 129.591 346.103 129.984C343.646 130.747 340.975 130.993 338.424 131.206C334.378 131.543 330.293 132.43 326.263 132.973C319.163 133.929 312.074 135.152 304.942 135.831C301.533 136.156 298.024 136.102 294.6 136.338C291.401 136.559 288.196 136.799 285.011 137.169C281.023 137.633 277.402 137.823 273.021 138.526C267.873 139.353 265.101 139.088 261.079 139.573C255.728 140.218 250.531 140.327 245.136 140.327C239.979 140.327 234.825 140.561 229.688 140.561C224.51 140.561 219.726 140.797 213.993 141.028C210.158 141.028 208.054 141.075 205.08 141.028C202.913 140.994 201.238 141.122 199.18 140.299C197.199 139.506 195.043 138.619 192.716 137.874C189.718 136.915 187.89 136.519 185.554 135.74C183.083 134.916 181.153 134.441 178.562 133.652C175.97 132.862 174.144 132.373 171.455 131.674C167.573 130.663 163.417 129.497 159.754 127.869C157.331 126.792 156.833 126.544 155.032 125.593C153.579 124.826 152.317 123.886 151.382 122.508C150.27 120.869 150.438 118.883 150.056 116.238C149.756 114.167 149.696 112.541 149.237 109.456Z" fill="#C34B29"/>
<path d="M20.3361 170.603C20.192 168.654 19.552 167.578 21.1124 166.385C21.9032 165.78 21.9346 165.826 23.1673 165.448C23.7609 165.34 24.9429 165.119 25.7155 164.971C27.9352 164.546 28.052 164.721 29.8826 164.219C32.4696 163.51 35.0914 162.716 37.7056 162.106C41.1081 161.312 44.4471 160.204 47.9117 159.723C50.0125 159.431 52.0955 159.112 54.1744 158.666C56.2862 158.214 58.5554 157.699 60.7136 157.588C64.3793 157.4 67.8631 156.215 71.5176 155.972C72.9599 155.773 73.9465 155.67 75.284 155.411C75.8868 155.295 77.087 155.136 77.6809 155.028C78.9004 154.806 79.9526 154.748 81.3695 154.867C83.2994 155.028 85.3703 155.586 87.1758 156.177C89.5064 156.939 91.7473 157.979 94.0626 158.801C97.2645 159.937 100.53 160.765 103.786 161.723C105.735 162.296 107.615 163.086 109.595 163.581C111.441 164.043 113.283 164.534 115.12 165.035C116.844 165.505 118.032 165.801 119.896 166.362C121.542 166.858 122.888 167.411 124.58 167.801C127.01 168.36 127.845 168.352 129.17 169.383C130.178 170.167 130.367 171.693 130.447 172.872C130.542 174.262 130.48 174.637 130.796 177.03C130.955 178.23 131.163 179.609 130.796 180.268C130.544 180.723 130.505 180.76 130.029 181.071C129.425 181.466 128.494 181.594 127.802 181.809C126.46 182.225 125.002 182.36 123.61 182.476C121.401 182.66 119.171 183.144 116.971 183.44C113.096 183.962 109.226 184.63 105.333 185C103.472 185.178 101.556 185.148 99.6869 185.277C97.9407 185.398 96.1913 185.529 94.4527 185.731C92.2754 185.984 90.2987 186.088 87.9075 186.471C85.097 186.923 83.5843 186.779 81.3883 187.043C78.4676 187.395 75.4991 187.443 72.1905 187.837C63.9689 188.816 55.6146 189.622 51.7898 190.452C48.54 191.157 49.29 190.747 46.7783 190.747C42.0481 190.284 38.9342 187.171 36.2996 185.824C34.57 185.112 32.7391 183.999 31.1581 183.151C29.2287 182.115 28.0763 181.543 26.077 180.654C24.7546 180.066 24.4824 179.931 23.4993 179.412C22.7064 178.993 22.0172 178.48 21.507 177.728C20.8999 176.833 20.9917 175.749 20.7829 174.305C20.6193 173.174 20.5865 172.287 20.3361 170.603Z" fill="#C34B29"/>
<path d="M69.1543 165.03C68.0393 155.662 67.7374 131.539 81.2049 130.353C97.6363 128.905 70.5748 163.173 69.1543 165.03ZM69.1543 165.03C69.3267 155.072 67.0959 133.683 56.7935 127.784C43.9155 120.411 37.5048 137.641 48.8359 148.514C56.4678 155.837 64.4137 158.512 69.1543 165.03Z" stroke="#EDD2CC" stroke-width="3" stroke-linecap="round"/>
<path d="M201.441 146.231C200.223 161.477 197.947 196.892 198.582 216.585" stroke="#C34B29"/>
<path d="M169.36 205.309C172.069 189.056 173.167 173.061 173.795 156.734C173.946 152.792 175.078 148.803 175.078 144.678C175.078 139.676 175.713 134.807 175.713 129.749C175.713 125.932 175.713 123.373 175.713 119.008C175.713 115.683 176.934 113.562 177.965 110.717C178.573 109.038 179.584 107.185 180.712 106.007C183.235 103.375 185.998 103.591 189.053 102.892C191.521 102.328 193.614 102.181 196.558 101.739C199.501 101.298 200.826 100.856 203.033 100.268" stroke="#EDD2CC" stroke-width="3" stroke-linecap="round"/>
<path d="M274.176 214.838C274.389 198.682 276.717 182.77 276.717 166.559C276.717 157.188 277.352 147.948 277.352 138.608C277.352 134.093 277.674 128.745 278.658 124.314C279.184 121.949 279.787 119.034 279.263 115.609C278.658 112.813 278.482 112.918 277.494 110.515C276.432 108.585 276.572 108.654 274.811 106.986C273.252 105.824 272.658 105.195 271.504 104.496C267.524 102.083 262.521 100.801 258.93 99.2219C256.358 97.9704 253.927 97.2989 251.307 96.3633C249.986 95.8915 246.574 95.0985 245.59 94.7751" stroke="#EDD2CC" stroke-width="3" stroke-linecap="round"/>
<path d="M303.211 42.9644C300.897 42.5182 300.777 42.5184 298.564 41.922C297.129 41.5351 296.127 41.2465 294.893 40.9235C293.381 40.5275 291.543 39.8894 290.312 39.5432C287.886 38.8611 286.557 38.3619 284.057 37.5759C282.001 36.9295 280.311 36.4982 278.359 35.8135C276.753 35.2501 275.987 35.2011 274.359 34.5783C272.992 34.0555 272.135 33.8293 271.067 33.3636C268.775 32.3644 267.724 32.1063 265.44 31.0748C264.247 30.5362 262.177 29.9355 260.897 29.9355C260.175 29.9355 258.507 29.8727 257.652 29.9355C256.205 30.0843 255.297 30.2844 254.195 30.4992C252.275 30.8734 251.135 31.124 249.294 31.423C246.165 31.9312 243.075 32.5374 239.936 32.9858C235.028 33.687 230.056 33.9609 225.127 34.4639C222.497 34.7322 220.996 34.6624 217.097 35.2264C213.197 35.7905 211.537 35.9553 208.786 36.327C205.537 36.766 203.677 37.2101 201.096 37.7577C195.941 39.2753 194.05 39.2124 188.875 40.4404C185.358 41.275 181.089 41.9626 180.87 43.7191C180.702 45.0615 180.87 49.0247 180.87 49.0247V58.0264V66.5139V71.6731V74.3029V78.2889C180.87 80.4614 180.746 81.0717 180.687 83.24C180.594 86.6697 180.494 91.5717 180.295 95.1697C180.808 97.9924 182.713 98.0619 185.332 99.4618C187.461 100.6 189.154 101.15 190.988 102.062C193.216 103.17 194.012 103.653 196.601 104.79C198.616 105.675 200.276 106.25 202.344 107.172C204.581 108.17 206.243 109.281 208.539 109.281C210.312 109.281 211.728 109.002 213.7 109.002H219.316C221.809 109.002 222.971 108.773 227.419 108.773H237.253H240.523H244.625C245.886 108.773 247.125 108.638 248.372 108.603C249.494 108.572 250.583 108.293 251.704 108.264C252.889 108.234 254.215 108.174 255.395 108.01C257.795 107.677 260.244 107.818 262.654 107.577C266.213 107.221 269.751 106.57 273.358 106.57C277.078 106.57 280.776 106.4 284.505 106.4C288.662 106.4 292.746 106.061 296.913 106.061H302.562C304.906 106.061 307.142 105.685 309.453 105.553C310.85 105.473 312.782 104.783 314.029 104.16C314.916 103.716 316.041 103.202 316.708 102.246C317.441 101.194 317.432 100.971 317.983 99.2619C318.266 98.3806 318.272 97.9293 318.435 96.9278C318.656 95.5595 318.757 94.8973 318.852 93.8733C319.112 91.0631 319.217 89.4029 319.217 86.1256C319.217 81.4789 319.141 79.7412 319.217 75.8818V65.3564V57.2599C319.217 55.4293 318.935 54.9013 318.935 51.5923C318.935 50.0786 319.035 49.7175 318.583 47.7201C318.336 46.6269 316.571 46.1428 315.233 45.6966C314.016 45.291 311.638 44.5459 310.263 44.3397C307.826 43.9741 305.877 43.4785 303.211 42.9644Z" fill="#004731"/>
<path d="M210.231 59.1608C210.231 69.5334 209.105 79.7235 209.105 90.1387C209.105 92.3742 208.455 101.169 208.455 105.984" stroke="#3E5641" stroke-width="3" stroke-linecap="round"/>
<path d="M183.76 45.0799C187.536 47.5491 190.032 49.5615 194.415 52.0409C196.7 53.3338 198.855 54.5204 201.046 55.5583C203.237 56.5963 204.301 56.9733 206.178 57.8072C207.534 58.4101 208.431 59.1608 209.95 59.1608C213.023 59.1608 217.172 58.4355 220.882 57.8072C228.032 56.5963 232.645 56.2503 240.615 55.2181C251.476 53.8117 258.42 53.7131 268.683 52.84C276.952 52.1365 283.099 51.5796 290.899 50.8374C299.744 49.9958 306.073 49.5238 315.159 48.8695" stroke="#3E5641" stroke-width="3" stroke-linecap="round"/>
<path d="M192.646 102.151C192.87 98.3382 194.059 94.7185 194.059 90.6871C194.059 86.9339 193.352 83.1774 193.352 79.5374C193.352 72.4607 194.059 65.345 194.059 58.1802C194.059 51.2496 196.721 49.7809 203.089 47.8943C208.221 46.3734 213.273 45.1021 218.635 44.9106C228.582 44.5553 238.166 43.3026 248.181 43.3026C250.242 43.3026 252.245 42.9181 254.483 42.464C258.062 41.738 261.1 41.7829 264.441 41.0693C267.613 40.3917 275.047 38.8638 277.901 37.8258" stroke="#779E7C" stroke-width="3" stroke-linecap="round"/>
<path d="M228.193 35.0304C232.183 37.6467 235.977 40.3939 240.856 43.34C244.658 45.6356 247.77 46.4829 250.592 47.8941C252.853 49.0242 254.756 50.2645 256.952 51.4275C260.209 53.1516 259.779 57.6058 259.779 60.8105C259.779 76.0993 261.192 91.0086 261.192 106.391" stroke="#779E7C" stroke-width="3" stroke-linecap="round"/>
<path d="M242.113 40.6704C242.113 39.0473 241.768 39.3499 242.113 37.7112C242.849 34.2162 243.839 30.1745 244.733 24.5886C246.022 16.5314 246.336 11.7983 250.357 6.81694C253.263 3.21757 255.681 2.76768 258.759 3.92359C262.971 6.14203 263.72 9.1745 262.971 13.9158C261.83 21.1392 256.578 27.0163 252.756 31.2623C248.573 35.9107 243.84 37.9238 241.406 42.7904" stroke="#779E7C" stroke-width="3" stroke-linecap="round"/>
<path d="M242.149 40.2949C241.229 38.2335 240.212 36.2733 239.47 34.1347C238.662 31.8072 238.045 29.4814 237.488 27.0818C236.875 24.4431 236.397 21.7624 235.89 19.0989C235.501 17.0625 235.022 15.0366 234.64 12.9939C234.41 11.7596 234.149 10.4695 233.796 9.26889C233.419 7.98456 232.981 7.08741 232.043 5.66294C231.109 4.40989 230.366 3.86199 229.276 3.25494C228.526 2.83759 227.902 2.54697 227.051 2.41352C226.381 2.30847 225.58 2.28496 224.624 2.77826C223.003 3.61499 222.344 5.25468 221.939 6.77522C221.478 8.51178 221.476 10.4366 221.679 12.206C221.972 14.7579 222.405 17.1925 223.479 19.5519C224.054 20.8171 224.443 21.9416 225.428 23.45C226.413 24.9584 226.461 25.6015 228.193 27.8376C229.925 30.0737 229.697 29.6284 231.198 31.6842C232.7 33.7401 233.253 34.2403 234.143 35.2304C234.953 36.1311 235.868 37.1472 236.779 37.9544C238.162 39.1801 239.869 40.0661 241.546 40.8054C241.857 40.9427 242.124 40.9293 242.225 41.226" stroke="#779E7C" stroke-width="3" stroke-linecap="round"/>
<circle cx="226.045" cy="74.2936" r="2.3496" fill="#D9D9D9"/>
<circle cx="284.314" cy="63.7446" r="2.3496" fill="#D9D9D9"/>
<circle cx="248.02" cy="87.7107" r="2.3496" fill="#D9D9D9"/>
<circle cx="221.346" cy="102.617" r="2.3496" fill="#D9D9D9"/>
<circle cx="280.251" cy="97.918" r="2.3496" fill="#D9D9D9"/>
<circle cx="309.151" cy="85.361" r="2.3496" fill="#D9D9D9"/>
<circle cx="289.014" cy="45.14" r="2.3496" fill="#D9D9D9"/>
<circle cx="223.695" cy="52.1204" r="2.3496" fill="#D9D9D9"/>
<circle cx="223.695" cy="39.0245" r="2.3496" fill="#D9D9D9"/>
<circle cx="190.296" cy="43.7237" r="2.3496" fill="#D9D9D9"/>
<circle cx="262.527" cy="35.4762" r="2.3496" fill="#D9D9D9"/>
<circle cx="203.033" cy="63.7446" r="2.3496" fill="#D9D9D9"/>
<circle cx="201.44" cy="89.7167" r="2.3496" fill="#D9D9D9"/>
<circle cx="185.597" cy="90.0603" r="2.3496" fill="#D9D9D9"/>
<circle cx="186.109" cy="66.0942" r="2.3496" fill="#D9D9D9"/>
<circle cx="252.105" cy="61.6547" r="2.3496" fill="#D9D9D9"/>
<path d="M48.0527 204.025V194.237L68.3165 188.945L112.591 184.692L48.0527 204.025Z" fill="#EDD2CC" fill-opacity="0.5"/>
<path d="M48.3691 221.075V210.34L127.937 183.502V194.237L48.3691 221.075Z" fill="#EDD2CC" fill-opacity="0.5"/>
<path d="M48.5352 226.308V229.109H74.4487L127.724 210.436L128.754 199.702L48.5352 226.308Z" fill="#EDD2CC" fill-opacity="0.5"/>
<path d="M127.054 216.835L96.4727 228.368L113.289 227.698C115.595 227.673 120.878 227.296 123.557 225.987C126.235 224.677 127.004 219.34 127.054 216.835Z" fill="#EDD2CC" fill-opacity="0.5"/>
<path d="M46.8212 203.991V194.221L24.5401 181.906L23.5975 188.94L46.8212 203.991Z" fill="#EDD2CC" fill-opacity="0.5"/>
<path d="M47.7979 220.688V210.385L22.7999 194.221L22.3968 203.659L47.7979 220.688Z" fill="#EDD2CC" fill-opacity="0.5"/>
<path d="M47.3802 229.327L47.7979 226.372L22.3968 208.662C22.3968 209.87 22.0006 211.808 22.3968 214.245C25.5942 218.934 40.5119 226.869 47.3802 229.327Z" fill="#EDD2CC" fill-opacity="0.5"/>
<path d="M100.589 161.976C99.3053 162.223 97.1528 162.271 95.3043 162.633C90.5088 163.572 88.6609 163.152 84.0412 164.16C73.8778 165.42 71.2708 165.202 64.5631 166.596C59.7176 167.602 54.9153 167.938 50.0861 169.016C47.2926 169.64 44.4186 169.855 41.6476 170.574C39.4072 171.155 37.0631 171.623 34.8815 172.387C33.9701 172.706 31.577 173.282 30.9623 174.156C29.6929 175.959 29.4688 176.759 29.4695 179.363C29.4684 182.471 29.4688 183.112 29.4688 185.159C29.4688 186.819 29.8131 188.099 29.8133 190.703C29.8135 194.761 29.9218 196.041 29.992 198.85C30.0551 201.374 30.432 203.418 30.5027 205.962C30.5685 208.333 30.5625 210.825 30.7452 213.2C30.9681 216.098 30.9623 219.003 30.9623 221.92" stroke="#EDD2CC" stroke-width="3" stroke-linecap="round"/>
<path d="M53.8027 159.624C58.0867 161.304 61.1105 162.648 65.6463 164.412C69.1484 165.774 70.3133 166.419 73.1665 167.816C75.3056 168.864 76.9901 169.743 79.9254 170.544C82.4485 171.232 83.0389 171.627 84.7971 172.392C86.6633 173.205 90.3662 175.838 90.2478 179.868C90.2478 183.843 89.7153 188.084 90.4265 191.996C90.8506 194.328 90.7294 197.709 90.4648 200.089C90.073 203.616 89.7882 207.036 89.7882 210.609C89.7882 213.081 89.7882 215.554 89.7882 218.026C89.7882 220.058 89.649 222.156 90.0053 224.116C90.1507 224.916 90.2478 225.935 90.2478 226.745" stroke="#EDD2CC" stroke-width="3" stroke-linecap="round"/>
<defs>
<filter id="filter0_f_72_405" x="126.636" y="131.737" width="380.054" height="138.481" filterUnits="userSpaceOnUse" color-interpolation-filters="sRGB">
<feFlood flood-opacity="0" result="BackgroundImageFix"/>
<feBlend mode="normal" in="SourceGraphic" in2="BackgroundImageFix" result="shape"/>
<feGaussianBlur stdDeviation="12.35" result="effect1_foregroundBlur_72_405"/>
</filter>
<filter id="filter1_f_72_405" x="0.0431633" y="177.842" width="218.387" height="98.0696" filterUnits="userSpaceOnUse" color-interpolation-filters="sRGB">
<feFlood flood-opacity="0" result="BackgroundImageFix"/>
<feBlend mode="normal" in="SourceGraphic" in2="BackgroundImageFix" result="shape"/>
<feGaussianBlur stdDeviation="12.35" result="effect1_foregroundBlur_72_405"/>
</filter>
</defs>
</svg>
